<?xml version="1.0" encoding="utf-8"?>
<!-- Generator: Adobe Illustrator 21.0.2, SVG Export Plug-In . SVG Version: 6.00 Build 0)  -->
<svg version="1.1" id="Layer_1" xmlns="http://www.w3.org/2000/svg" xmlns:xlink="http://www.w3.org/1999/xlink" x="0px" y="0px"
	 viewBox="0 0 782 217" style="enable-background:new 0 0 782 217;" xml:space="preserve">
<style type="text/css">
	.st0{fill:#E2E1D9;}
</style>
<polygon class="st0" points="44.3,80.5 38.2,86.7 0.3,55 38.2,23.3 44.3,29.6 13.6,54.9 "/>
<polygon class="st0" points="113.4,85.8 103.4,85.8 103.4,51.9 72.4,51.9 72.4,85.8 62.3,85.8 62.3,12 72.4,12 72.4,43.2 
	103.4,43.2 103.4,12 113.4,12 "/>
<polygon class="st0" points="178.3,20.6 156.5,20.6 156.5,85.8 146.3,85.8 146.3,20.6 124.5,20.6 124.5,12 178.3,12 "/>
<polygon class="st0" points="243.9,85.8 234.1,85.8 232.6,39.8 232,22.1 228.6,32.4 217.7,61.7 210.7,61.7 200.4,33.5 196.9,22.1 
	196.7,40.6 195.4,85.8 185.9,85.8 189.5,12 201.4,12 211.4,39.8 214.6,49.1 217.7,39.8 228.1,12 240.4,12 "/>
<polygon class="st0" points="302.3,85.8 259.8,85.8 259.8,12 270.1,12 270.1,77.2 302.3,77.2 "/>
<polygon class="st0" points="322,29.6 328.1,23.3 366.1,55 328.1,86.7 322,80.5 352.8,55.1 "/>
<polygon class="st0" points="197.8,185.1 191.6,191.3 153.7,159.7 191.6,128 197.8,134.3 167,159.6 "/>
<path class="st0" d="M265.7,187.7c-5.9,2.4-12.1,3.7-18.6,3.7c-10.4,0-18.4-3.1-24-9.3c-5.6-6.2-8.4-15.4-8.4-27.6
	c0-5.9,0.8-11.2,2.3-16c1.5-4.8,3.7-8.8,6.6-12.2c2.9-3.3,6.3-5.9,10.4-7.7c4.1-1.8,8.6-2.7,13.7-2.7c3.4,0,6.6,0.3,9.5,0.9
	c2.9,0.6,5.8,1.5,8.5,2.7v9.9c-2.7-1.5-5.4-2.6-8.3-3.4c-2.9-0.8-6-1.2-9.4-1.2c-3.5,0-6.6,0.6-9.4,1.9c-2.8,1.3-5.2,3.2-7.1,5.6
	c-2,2.5-3.5,5.5-4.5,9c-1.1,3.6-1.6,7.6-1.6,12.2c0,9.6,1.9,16.8,5.8,21.6c3.9,4.9,9.6,7.3,17,7.3c3.2,0,6.2-0.4,9.1-1.1
	c2.9-0.7,5.7-1.8,8.4-3.1V187.7z"/>
<path class="st0" d="M329.3,170.5c0,3.5-0.7,6.6-2.1,9.2c-1.4,2.6-3.4,4.8-6,6.6c-2.6,1.7-5.6,3.1-9.2,3.9
	c-3.6,0.9-7.6,1.3-11.9,1.3c-2,0-3.9-0.1-5.8-0.2c-1.9-0.2-3.8-0.3-5.6-0.6c-1.8-0.2-3.5-0.5-5.1-0.8c-1.6-0.3-3-0.6-4.3-1v-9.7
	c2.8,1.1,6,1.9,9.5,2.5c3.5,0.6,7.5,0.9,12,0.9c3.2,0,6-0.3,8.3-0.8c2.3-0.5,4.1-1.3,5.6-2.3c1.4-1,2.5-2.2,3.2-3.6
	c0.7-1.4,1-3.1,1-4.9c0-2-0.6-3.7-1.7-5.1c-1.1-1.4-2.6-2.7-4.4-3.8c-1.8-1.1-3.9-2.1-6.2-3c-2.3-0.9-4.7-1.9-7.1-2.8
	c-2.4-1-4.8-2-7.1-3.2c-2.3-1.1-4.4-2.5-6.2-4.1c-1.8-1.6-3.3-3.4-4.4-5.5c-1.1-2.1-1.7-4.6-1.7-7.5c0-2.5,0.5-5,1.6-7.4
	c1.1-2.4,2.7-4.6,4.9-6.5c2.2-1.9,5.1-3.4,8.5-4.6c3.5-1.2,7.6-1.7,12.4-1.7c1.2,0,2.6,0.1,4,0.2c1.4,0.1,2.9,0.3,4.4,0.5
	c1.5,0.2,3,0.4,4.4,0.7c1.4,0.3,2.8,0.5,4,0.8v9c-2.9-0.8-5.8-1.5-8.7-1.9c-2.9-0.4-5.7-0.6-8.4-0.6c-5.8,0-10,1-12.7,2.9
	s-4.1,4.5-4.1,7.7c0,2,0.6,3.7,1.7,5.1c1.1,1.4,2.6,2.7,4.4,3.8c1.8,1.1,3.9,2.2,6.2,3.1c2.3,0.9,4.7,1.9,7.1,2.8
	c2.4,1,4.8,2.1,7.1,3.2c2.3,1.2,4.4,2.5,6.2,4.1c1.8,1.6,3.3,3.5,4.4,5.6C328.8,165,329.3,167.5,329.3,170.5z"/>
<path class="st0" d="M392.9,170.5c0,3.5-0.7,6.6-2.1,9.2c-1.4,2.6-3.4,4.8-6,6.6c-2.6,1.7-5.6,3.1-9.2,3.9
	c-3.6,0.9-7.6,1.3-11.9,1.3c-2,0-3.9-0.1-5.8-0.2c-1.9-0.2-3.8-0.3-5.6-0.6c-1.8-0.2-3.5-0.5-5.1-0.8c-1.6-0.3-3-0.6-4.3-1v-9.7
	c2.8,1.1,6,1.9,9.5,2.5c3.5,0.6,7.5,0.9,12,0.9c3.2,0,6-0.3,8.3-0.8c2.3-0.5,4.1-1.3,5.6-2.3c1.4-1,2.5-2.2,3.2-3.6
	c0.7-1.4,1-3.1,1-4.9c0-2-0.6-3.7-1.7-5.1c-1.1-1.4-2.6-2.7-4.4-3.8c-1.8-1.1-3.9-2.1-6.2-3c-2.3-0.9-4.7-1.9-7.1-2.8
	c-2.4-1-4.8-2-7.1-3.2c-2.3-1.1-4.4-2.5-6.2-4.1c-1.8-1.6-3.3-3.4-4.4-5.5c-1.1-2.1-1.7-4.6-1.7-7.5c0-2.5,0.5-5,1.6-7.4
	c1.1-2.4,2.7-4.6,4.9-6.5c2.2-1.9,5.1-3.4,8.5-4.6c3.5-1.2,7.6-1.7,12.4-1.7c1.2,0,2.6,0.1,4,0.2c1.4,0.1,2.9,0.3,4.4,0.5
	c1.5,0.2,3,0.4,4.4,0.7c1.4,0.3,2.8,0.5,4,0.8v9c-2.9-0.8-5.8-1.5-8.7-1.9c-2.9-0.4-5.7-0.6-8.4-0.6c-5.8,0-10,1-12.7,2.9
	s-4.1,4.5-4.1,7.7c0,2,0.6,3.7,1.7,5.1c1.1,1.4,2.6,2.7,4.4,3.8c1.8,1.1,3.9,2.2,6.2,3.1c2.3,0.9,4.7,1.9,7.1,2.8
	c2.4,1,4.8,2.1,7.1,3.2c2.3,1.2,4.4,2.5,6.2,4.1c1.8,1.6,3.3,3.5,4.4,5.6C392.3,165,392.9,167.5,392.9,170.5z"/>
<polygon class="st0" points="412,134.3 418.1,128 456,159.7 418.1,191.3 412,185.1 442.7,159.8 "/>
<path class="st0" d="M557.6,179.4c1.3,0,2.5,0.2,3.6,0.7c1.1,0.5,2.1,1.2,3,2c0.8,0.9,1.5,1.9,2,3c0.5,1.1,0.7,2.4,0.7,3.7
	c0,1.3-0.2,2.5-0.7,3.6c-0.5,1.1-1.2,2.1-2,3c-0.8,0.8-1.8,1.5-3,2c-1.1,0.5-2.4,0.7-3.6,0.7c-1.3,0-2.5-0.2-3.7-0.7
	c-1.1-0.5-2.1-1.2-3-2s-1.5-1.8-2-3c-0.5-1.1-0.7-2.3-0.7-3.6c0-1.3,0.2-2.5,0.7-3.7c0.5-1.1,1.2-2.2,2-3c0.8-0.9,1.8-1.5,3-2
	C555,179.6,556.2,179.4,557.6,179.4z"/>
<path class="st0" d="M639.3,123.4v51.2c0,3.2-0.5,6.2-1.4,9c-0.9,2.8-2.4,5.3-4.3,7.4c-1.9,2.1-4.3,3.8-7.2,5
	c-2.9,1.2-6.3,1.9-10.2,1.9c-1.5,0-3-0.1-4.5-0.3c-1.5-0.2-3-0.5-4.4-0.8c-1.4-0.4-2.7-0.8-4-1.3s-2.3-1.1-3.2-1.7v-10.1
	c2.3,1.7,4.9,3,7.8,4c2.8,1,5.7,1.5,8.4,1.5c4.1,0,7.3-1.3,9.5-3.8c2.2-2.5,3.3-6.1,3.3-10.8v-42.5h-28v-8.7H639.3z"/>
<path class="st0" d="M709.6,177.2c0,3.5-0.7,6.6-2.1,9.2c-1.4,2.6-3.4,4.8-6,6.6c-2.6,1.7-5.6,3.1-9.2,3.9
	c-3.6,0.9-7.6,1.3-11.9,1.3c-2,0-3.9-0.1-5.8-0.2c-1.9-0.2-3.8-0.3-5.6-0.6c-1.8-0.2-3.5-0.5-5.1-0.8c-1.6-0.3-3-0.6-4.3-1v-9.7
	c2.8,1.1,6,1.9,9.5,2.5c3.5,0.6,7.5,0.9,12,0.9c3.2,0,6-0.3,8.3-0.8c2.3-0.5,4.1-1.3,5.6-2.3c1.4-1,2.5-2.2,3.2-3.6
	c0.7-1.4,1-3.1,1-4.9c0-2-0.6-3.7-1.7-5.1c-1.1-1.4-2.6-2.7-4.4-3.8c-1.8-1.1-3.9-2.1-6.2-3c-2.3-0.9-4.7-1.9-7.1-2.8
	c-2.4-1-4.8-2-7.1-3.2c-2.3-1.1-4.4-2.5-6.2-4.1c-1.8-1.6-3.3-3.4-4.4-5.5c-1.1-2.1-1.7-4.6-1.7-7.5c0-2.5,0.5-5,1.6-7.4
	c1.1-2.4,2.7-4.6,4.9-6.5c2.2-1.9,5.1-3.4,8.5-4.6c3.5-1.2,7.6-1.7,12.4-1.7c1.2,0,2.6,0.1,4,0.2c1.4,0.1,2.9,0.3,4.4,0.5
	c1.5,0.2,3,0.4,4.4,0.7c1.4,0.3,2.8,0.5,4,0.8v9c-2.9-0.8-5.8-1.5-8.7-1.9c-2.9-0.4-5.7-0.6-8.4-0.6c-5.8,0-10,1-12.7,2.9
	c-2.7,1.9-4.1,4.5-4.1,7.7c0,2,0.6,3.7,1.7,5.1c1.1,1.4,2.6,2.7,4.4,3.8c1.8,1.1,3.9,2.2,6.2,3.1c2.3,0.9,4.7,1.9,7.1,2.8
	c2.4,1,4.8,2.1,7.1,3.2c2.3,1.2,4.4,2.5,6.2,4.1c1.8,1.6,3.3,3.5,4.4,5.6C709,171.7,709.6,174.2,709.6,177.2z"/>
</svg>
